# File created by Blade
# Date/Time:  Thu Sep 25 19:04:16 2014
# Frame Rate: 120.000 fps
#------------------------------------------------------
:FULLY-SPECIFIED
:DEGREES
813
root 3.520992 30.033866 -9.460083 100.980681 17.505735 30.545026
Spine 34.077595 29.165794 35.988545
Head -30.139392 22.872750 -27.094752
LeftShoulder -18.162712 34.166301 21.374841
LeftArm -11.917111 38.446962 -67.315808
LeftForeArm -1.406281 -0.000000 11.499883
LeftHand -36.286823 -0.000000 -7.867611
LeftHandThumb1 -26.253704 0.000000 33.147579
RightShoulder -0.823865 35.574294 -46.481663
RightArm 24.392425 8.293852 60.531165
RightForeArm -18.186014 -0.000000 16.616787
RightHand -6.544783 -0.000000 -62.492032
RightHandThumb1 -24.326973 -0.000000 -32.862282
LeftUpLeg -101.995383 -16.387529 -1.470904
LeftLeg -2.945692 -0.000000 0.000000
LeftFoot 8.327361 3.930101 -25.326089
LeftToeBase 6.876823 -0.000000 -0.000000
RightUpLeg -105.703569 -57.400031 27.974731
RightLeg -3.366561 -0.000000 0.000000
RightFoot 2.015462 -19.106757 22.890337
RightToeBase 4.680091 -0.000000 -0.000000
814
root 3.525427 30.027920 -9.482705 100.987714 17.537704 30.560908
Spine 34.052009 29.273408 35.984564
Head -30.220620 22.821065 -27.069769
LeftShoulder -18.235319 34.195757 21.320423
LeftArm -11.955495 38.492254 -67.466900
LeftForeArm -1.260945 0.000000 11.484757
LeftHand -36.175943 0.000000 -7.934394
LeftHandThumb1 -26.253704 0.000000 33.147579
RightShoulder -0.843423 35.560286 -46.526959
RightArm 24.201637 8.369322 60.548887
RightForeArm -18.221701 -0.000000 16.689384
RightHand -6.562440 0.000000 -62.640363
RightHandThumb1 -24.326973 -0.000000 -32.862282
LeftUpLeg -102.012573 -16.413820 -1.450142
LeftLeg -2.964774 -0.000000 0.000000
LeftFoot 8.347258 3.896207 -25.327528
LeftToeBase 6.876734 -0.000000 -0.000000
RightUpLeg -105.708202 -57.427077 27.968125
RightLeg -3.365481 -0.000000 0.000000
RightFoot 1.996051 -19.127213 22.790752
RightToeBase 4.843420 -0.000000 -0.000000
815
root 3.530058 30.021068 -9.505469 100.965275 17.572166 30.566216
Spine 34.066178 29.380928 36.001746
Head -30.273455 22.782716 -27.029053
LeftShoulder -18.292861 34.227482 21.293788
LeftArm -12.020064 38.504107 -67.643687
LeftForeArm -1.105788 0.000000 11.530867
LeftHand -36.250431 -0.000000 -8.089753
LeftHandThumb1 -26.253704 0.000000 33.147579
RightShoulder -0.894096 35.455091 -46.615427
RightArm 24.089441 8.491971 60.597178
RightForeArm -18.382461 -0.000000 16.649719
RightHand -6.203624 -0.000000 -62.704292
RightHandThumb1 -24.326973 -0.000000 -32.862282
LeftUpLeg -102.008362 -16.419070 -1.411926
LeftLeg -3.016887 -0.000000 0.000000
LeftFoot 8.419510 3.879457 -25.233185
LeftToeBase 6.782514 -0.000000 -0.000000
RightUpLeg -105.628129 -57.465216 27.887468
RightLeg -3.377852 -0.000000 0.000000
RightFoot 2.008510 -19.183375 22.717457
RightToeBase 4.879272 -0.000000 -0.000000
816
root 3.535375 30.014336 -9.527094 100.964246 17.599729 30.596551
Spine 34.062886 29.481826 36.027145
Head -30.296812 22.717553 -27.027840
LeftShoulder -18.347572 34.251765 21.249821
LeftArm -12.092258 38.562373 -67.836731
LeftForeArm -1.092626 -0.000000 11.542334
LeftHand -36.248099 -0.000000 -8.219542
LeftHandThumb1 -26.253704 0.000000 33.147579
RightShoulder -0.870446 35.475524 -46.631142
RightArm 23.860034 8.532475 60.541575
RightForeArm -18.265303 0.000000 16.721673
RightHand -6.313090 -0.000000 -63.098124
RightHandThumb1 -24.326973 -0.000000 -32.862282
LeftUpLeg -102.013440 -16.455017 -1.383938
LeftLeg -3.056721 -0.000000 0.000000
LeftFoot 8.431627 3.856815 -25.207371
LeftToeBase 6.830139 -0.000000 -0.000000
RightUpLeg -105.624292 -57.511371 27.886085
RightLeg -3.400837 -0.000000 0.000000
RightFoot 2.011777 -19.223431 22.691880
RightToeBase 4.939218 -0.000000 -0.000000
817
root 3.541682 30.008819 -9.548603 100.977074 17.625104 30.636296
Spine 34.049514 29.595546 36.056270
Head -30.292633 22.689528 -26.976358
LeftShoulder -18.390647 34.240425 21.230892
LeftArm -12.220015 38.513888 -68.041738
LeftForeArm -0.957585 -0.000000 11.600816
LeftHand -36.223579 -0.000000 -8.145290
LeftHandThumb1 -26.253704 0.000000 33.147579
RightShoulder -0.899048 35.441590 -46.676244
RightArm 23.663469 8.488696 60.448852
RightForeArm -18.172892 -0.000000 16.777895
RightHand -6.321005 0.000000 -63.435166
RightHandThumb1 -24.326973 -0.000000 -32.862282
LeftUpLeg -102.026031 -16.507249 -1.360468
LeftLeg -3.096708 -0.000000 0.000000
LeftFoot 8.473692 3.861706 -25.210558
LeftToeBase 6.879789 -0.000000 -0.000000
RightUpLeg -105.604873 -57.569168 27.867897
RightLeg -3.442767 -0.000000 0.000000
RightFoot 2.035228 -19.278344 22.675887
RightToeBase 4.960860 -0.000000 -0.000000
818
root 3.549508 30.003299 -9.570640 100.997163 17.648347 30.698864
Spine 34.014269 29.680966 36.091353
Head -30.289854 22.553398 -26.987652
LeftShoulder -18.471118 34.333251 21.167688
LeftArm -12.219402 38.501996 -68.192270
LeftForeArm -0.868071 0.000000 11.604162
LeftHand -36.227087 -0.000000 -8.059575
LeftHandThumb1 -26.253704 0.000000 33.147579
RightShoulder -0.935974 35.412411 -46.744394
RightArm 23.479979 8.540253 60.441528
RightForeArm -18.241893 -0.000000 16.818893
RightHand -6.291102 -0.000000 -63.721951
RightHandThumb1 -24.326973 -0.000000 -32.862282
LeftUpLeg -102.039440 -16.591188 -1.349352
LeftLeg -3.129013 -0.000000 0.000000
LeftFoot 8.503332 3.852067 -25.180973
LeftToeBase 6.964715 -0.000000 -0.000000
RightUpLeg -105.584020 -57.657384 27.841300
RightLeg -3.478568 -0.000000 0.000000
RightFoot 2.057559 -19.350760 22.657352
RightToeBase 4.936159 -0.000000 -0.000000
819
root 3.558069 29.997582 -9.591592 101.005238 17.676882 30.764169
Spine 33.981455 29.736656 36.122186
Head -30.261722 22.496786 -26.956585
LeftShoulder -18.539250 34.394367 21.129789
LeftArm -12.345434 38.361699 -68.391649
LeftForeArm -0.610735 0.000000 11.732707
LeftHand -36.320691 0.000000 -8.177327
LeftHandThumb1 -26.253704 0.000000 33.147579
RightShoulder -0.949279 35.402645 -46.792818
RightArm 23.297693 8.668147 60.457666
RightForeArm -18.442041 -0.000000 16.830624
RightHand -6.105930 -0.000000 -63.936170
RightHandThumb1 -24.326973 -0.000000 -32.862282
LeftUpLeg -102.033908 -16.684120 -1.372223
LeftLeg -3.150870 -0.000000 0.000000
LeftFoot 8.496402 3.841974 -25.301904
LeftToeBase 7.263238 -0.000000 -0.000000
RightUpLeg -105.563813 -57.747606 27.830354
RightLeg -3.515570 -0.000000 0.000000
RightFoot 2.083644 -19.405698 22.638683
RightToeBase 4.965586 -0.000000 -0.000000
820
root 3.564281 29.992103 -9.611669 100.995672 17.708430 30.797707
Spine 34.003700 29.818405 36.173772
Head -30.244357 22.456113 -26.931730
LeftShoulder -18.625374 34.437681 21.113074
LeftArm -12.410127 38.396492 -68.651431
LeftForeArm -0.534200 -0.000000 11.681593
LeftHand -36.268917 -0.000000 -8.093709
LeftHandThumb1 -26.253704 0.000000 33.147579
RightShoulder -0.964101 35.388083 -46.835008
RightArm 23.131621 8.785183 60.447239
RightForeArm -18.620610 -0.000000 16.888153
RightHand -6.186347 -0.000000 -64.230639
RightHandThumb1 -24.326973 -0.000000 -32.862282
LeftUpLeg -102.026938 -16.749233 -1.407224
LeftLeg -3.151013 -0.000000 0.000000
LeftFoot 8.588111 3.795739 -25.042664
LeftToeBase 7.041546 -0.000000 -0.000000
RightUpLeg -105.566580 -57.794651 27.851070
RightLeg -3.548748 -0.000000 0.000000
RightFoot 2.080992 -19.456375 22.680882
RightToeBase 5.046919 -0.000000 -0.000000
821
root 3.569026 29.987762 -9.630363 100.994694 17.741708 30.823682
Spine 34.032202 29.918148 36.224210
Head -30.229669 22.351597 -26.913536
LeftShoulder -18.664359 34.405802 21.112643
LeftArm -12.626383 38.315908 -68.922704
LeftForeArm -0.359175 -0.000000 11.735672
LeftHand -36.210883 -0.000000 -8.394842
LeftHandThumb1 -26.253704 0.000000 33.147579
RightShoulder -0.979473 35.401937 -46.851049
RightArm 22.942571 8.862035 60.395114
RightForeArm -18.700561 -0.000000 16.949800
RightHand -6.168073 -0.000000 -64.610434
RightHandThumb1 -24.326973 -0.000000 -32.862282
LeftUpLeg -102.027026 -16.802443 -1.437101
LeftLeg -3.162232 -0.000000 0.000000
LeftFoot 8.650197 3.775226 -24.941343
LeftToeBase 7.012026 -0.000000 -0.000000
RightUpLeg -105.607532 -57.825294 27.915222
RightLeg -3.565509 -0.000000 0.000000
RightFoot 2.118455 -19.452894 22.619248
RightToeBase 5.042182 -0.000000 -0.000000
822
root 3.573245 29.984212 -9.648773 101.008341 17.782474 30.872307
Spine 34.037548 29.993450 36.285887
Head -30.217491 22.227431 -26.911854
LeftShoulder -18.743543 34.366075 21.095325
LeftArm -12.835593 38.349153 -69.223748
LeftForeArm -0.322174 -0.000000 11.740908
LeftHand -36.299461 0.000000 -8.296478
LeftHandThumb1 -26.253704 0.000000 33.147579
RightShoulder -1.001969 35.334705 -46.894742
RightArm 22.821075 8.998445 60.392030
RightForeArm -18.802894 -0.000000 17.040919
RightHand -6.171221 -0.000000 -64.864336
RightHandThumb1 -24.326973 -0.000000 -32.862282
LeftUpLeg -102.038235 -16.871956 -1.459755
LeftLeg -3.145936 -0.000000 0.000000
LeftFoot 8.446079 3.604995 -25.521047
LeftToeBase 7.966037 -0.000000 -0.000000
RightUpLeg -105.683326 -57.869312 28.020904
RightLeg -3.585912 -0.000000 0.000000
RightFoot 2.182762 -19.452423 22.541356
RightToeBase 5.023517 -0.000000 -0.000000
